<svg width="370" height="200" viewBox="0 0 370 200" fill="none" xmlns="http://www.w3.org/2000/svg">
<rect width="370" height="200" rx="20" fill="url(#paint0_linear)"/>
<path d="M28.7305 30.4336L28.8184 31.6152C29.5671 30.6973 30.5794 30.2383 31.8555 30.2383C33.2161 30.2383 34.1504 30.7754 34.6582 31.8496C35.4004 30.7754 36.4583 30.2383 37.832 30.2383C38.9779 30.2383 39.8307 30.5736 40.3906 31.2441C40.9505 31.9082 41.2305 32.9108 41.2305 34.252V41H38.3984V34.2617C38.3984 33.6628 38.2812 33.2266 38.0469 32.9531C37.8125 32.6732 37.3991 32.5332 36.8066 32.5332C35.9603 32.5332 35.3743 32.9368 35.0488 33.7441L35.0586 41H32.2363V34.2715C32.2363 33.6595 32.1159 33.2168 31.875 32.9434C31.6341 32.6699 31.224 32.5332 30.6445 32.5332C29.8438 32.5332 29.2643 32.8652 28.9062 33.5293V41H26.084V30.4336H28.7305ZM42.9688 35.6191C42.9688 34.571 43.1706 33.6367 43.5742 32.8164C43.9779 31.9961 44.5573 31.3613 45.3125 30.9121C46.0742 30.4629 46.9564 30.2383 47.959 30.2383C49.3848 30.2383 50.5469 30.6745 51.4453 31.5469C52.3503 32.4193 52.8548 33.6042 52.959 35.1016L52.9785 35.8242C52.9785 37.4453 52.526 38.7474 51.6211 39.7305C50.7161 40.707 49.502 41.1953 47.9785 41.1953C46.4551 41.1953 45.2376 40.707 44.3262 39.7305C43.4212 38.7539 42.9688 37.4258 42.9688 35.7461V35.6191ZM45.791 35.8242C45.791 36.8268 45.9798 37.5951 46.3574 38.1289C46.735 38.6562 47.2754 38.9199 47.9785 38.9199C48.6621 38.9199 49.196 38.6595 49.5801 38.1387C49.9642 37.6113 50.1562 36.7715 50.1562 35.6191C50.1562 34.6361 49.9642 33.8743 49.5801 33.334C49.196 32.7936 48.6556 32.5234 47.959 32.5234C47.2689 32.5234 46.735 32.7936 46.3574 33.334C45.9798 33.8678 45.791 34.6979 45.791 35.8242ZM57.3145 30.4336L57.4023 31.6543C58.1576 30.7103 59.1699 30.2383 60.4395 30.2383C61.5592 30.2383 62.3926 30.5671 62.9395 31.2246C63.4863 31.8822 63.7663 32.8652 63.7793 34.1738V41H60.957V34.2422C60.957 33.6432 60.8268 33.2103 60.5664 32.9434C60.306 32.6699 59.873 32.5332 59.2676 32.5332C58.4733 32.5332 57.8776 32.8717 57.4805 33.5488V41H54.6582V30.4336H57.3145ZM65.4883 35.6191C65.4883 34.571 65.6901 33.6367 66.0938 32.8164C66.4974 31.9961 67.0768 31.3613 67.832 30.9121C68.5938 30.4629 69.4759 30.2383 70.4785 30.2383C71.9043 30.2383 73.0664 30.6745 73.9648 31.5469C74.8698 32.4193 75.3743 33.6042 75.4785 35.1016L75.498 35.8242C75.498 37.4453 75.0456 38.7474 74.1406 39.7305C73.2357 40.707 72.0215 41.1953 70.498 41.1953C68.9746 41.1953 67.7572 40.707 66.8457 39.7305C65.9408 38.7539 65.4883 37.4258 65.4883 35.7461V35.6191ZM68.3105 35.8242C68.3105 36.8268 68.4993 37.5951 68.877 38.1289C69.2546 38.6562 69.7949 38.9199 70.498 38.9199C71.1816 38.9199 71.7155 38.6595 72.0996 38.1387C72.4837 37.6113 72.6758 36.7715 72.6758 35.6191C72.6758 34.6361 72.4837 33.8743 72.0996 33.334C71.7155 32.7936 71.1751 32.5234 70.4785 32.5234C69.7884 32.5234 69.2546 32.7936 68.877 33.334C68.4993 33.8678 68.3105 34.6979 68.3105 35.8242ZM86.7578 35.8145C86.7578 37.5072 86.3965 38.8288 85.6738 39.7793C84.9512 40.7233 83.9421 41.1953 82.6465 41.1953C81.5007 41.1953 80.5859 40.7559 79.9023 39.877L79.7754 41H77.2363V26H80.0586V31.3809C80.7096 30.6191 81.5658 30.2383 82.627 30.2383C83.916 30.2383 84.9251 30.7135 85.6543 31.6641C86.39 32.6081 86.7578 33.9395 86.7578 35.6582V35.8145ZM83.9355 35.6094C83.9355 34.5417 83.7663 33.7637 83.4277 33.2754C83.0892 32.7806 82.5846 32.5332 81.9141 32.5332C81.0156 32.5332 80.3971 32.901 80.0586 33.6367V37.8066C80.4036 38.5488 81.0286 38.9199 81.9336 38.9199C82.8451 38.9199 83.444 38.4707 83.7305 37.5723C83.8672 37.1426 83.9355 36.4883 83.9355 35.6094ZM94.6289 41C94.4987 40.7461 94.4043 40.4303 94.3457 40.0527C93.6621 40.8145 92.7734 41.1953 91.6797 41.1953C90.6445 41.1953 89.7852 40.8958 89.1016 40.2969C88.4245 39.6979 88.0859 38.9427 88.0859 38.0312C88.0859 36.9115 88.4993 36.0521 89.3262 35.4531C90.1595 34.8542 91.3607 34.5514 92.9297 34.5449H94.2285V33.9395C94.2285 33.4512 94.1016 33.0605 93.8477 32.7676C93.6003 32.4746 93.2064 32.3281 92.666 32.3281C92.1908 32.3281 91.8164 32.4421 91.543 32.6699C91.276 32.8978 91.1426 33.2103 91.1426 33.6074H88.3203C88.3203 32.9954 88.5091 32.429 88.8867 31.9082C89.2643 31.3874 89.7982 30.9805 90.4883 30.6875C91.1784 30.388 91.9531 30.2383 92.8125 30.2383C94.1146 30.2383 95.1465 30.5671 95.9082 31.2246C96.6764 31.8757 97.0605 32.7936 97.0605 33.9785V38.5586C97.0671 39.5612 97.207 40.3197 97.4805 40.834V41H94.6289ZM92.2949 39.0371C92.7116 39.0371 93.0957 38.946 93.4473 38.7637C93.7988 38.5749 94.0592 38.3242 94.2285 38.0117V36.1953H93.1738C91.7611 36.1953 91.0091 36.6836 90.918 37.6602L90.9082 37.8262C90.9082 38.1777 91.0319 38.4674 91.2793 38.6953C91.5267 38.9232 91.8652 39.0371 92.2949 39.0371ZM101.826 30.4336L101.914 31.6543C102.669 30.7103 103.682 30.2383 104.951 30.2383C106.071 30.2383 106.904 30.5671 107.451 31.2246C107.998 31.8822 108.278 32.8652 108.291 34.1738V41H105.469V34.2422C105.469 33.6432 105.339 33.2103 105.078 32.9434C104.818 32.6699 104.385 32.5332 103.779 32.5332C102.985 32.5332 102.389 32.8717 101.992 33.5488V41H99.1699V30.4336H101.826ZM114.277 36.7617L113.262 37.7773V41H110.439V26H113.262V34.3105L113.809 33.6074L116.514 30.4336H119.902L116.084 34.8379L120.234 41H116.992L114.277 36.7617Z" fill="white"/>
<line x1="130.5" y1="23" x2="130.5" y2="48" stroke="#CCCCCC"/>
<path d="M151.292 32.0469V38.6982C151.292 39.7555 150.952 40.5941 150.273 41.2139C149.599 41.8291 148.699 42.1367 147.573 42.1367C146.434 42.1367 145.529 41.8337 144.859 41.2275C144.189 40.6169 143.854 39.7715 143.854 38.6914V32.0469H145.577V38.7051C145.577 39.3704 145.746 39.8786 146.083 40.2295C146.42 40.5804 146.917 40.7559 147.573 40.7559C148.904 40.7559 149.569 40.054 149.569 38.6504V32.0469H151.292ZM154.525 34.6035L154.573 35.458C155.12 34.7972 155.838 34.4668 156.727 34.4668C158.267 34.4668 159.051 35.3486 159.078 37.1123V42H157.417V37.208C157.417 36.7386 157.314 36.3923 157.109 36.1689C156.909 35.9411 156.578 35.8271 156.118 35.8271C155.448 35.8271 154.949 36.1302 154.621 36.7363V42H152.96V34.6035H154.525ZM162.544 42H160.883V34.6035H162.544V42ZM160.78 32.6826C160.78 32.4274 160.86 32.2155 161.02 32.0469C161.184 31.8783 161.416 31.7939 161.717 31.7939C162.018 31.7939 162.25 31.8783 162.414 32.0469C162.578 32.2155 162.66 32.4274 162.66 32.6826C162.66 32.9333 162.578 33.1429 162.414 33.3115C162.25 33.4756 162.018 33.5576 161.717 33.5576C161.416 33.5576 161.184 33.4756 161.02 33.3115C160.86 33.1429 160.78 32.9333 160.78 32.6826ZM166.967 39.8945L168.532 34.6035H170.248L167.685 42H166.242L163.658 34.6035H165.381L166.967 39.8945ZM174.452 42.1367C173.399 42.1367 172.545 41.8063 171.889 41.1455C171.237 40.4801 170.911 39.596 170.911 38.4932V38.2881C170.911 37.5498 171.052 36.8913 171.335 36.3125C171.622 35.7292 172.023 35.2757 172.538 34.9521C173.053 34.6286 173.627 34.4668 174.261 34.4668C175.268 34.4668 176.045 34.7881 176.592 35.4307C177.143 36.0732 177.419 36.9824 177.419 38.1582V38.8281H172.586C172.636 39.4388 172.839 39.9219 173.194 40.2773C173.554 40.6328 174.006 40.8105 174.548 40.8105C175.309 40.8105 175.929 40.5029 176.407 39.8877L177.303 40.7422C177.007 41.1842 176.61 41.5283 176.113 41.7744C175.621 42.016 175.067 42.1367 174.452 42.1367ZM174.254 35.7998C173.798 35.7998 173.429 35.9593 173.146 36.2783C172.868 36.5973 172.691 37.0417 172.613 37.6113H175.778V37.4883C175.742 36.9323 175.594 36.513 175.334 36.2305C175.074 35.9434 174.714 35.7998 174.254 35.7998ZM182.587 36.1211C182.368 36.0846 182.143 36.0664 181.91 36.0664C181.149 36.0664 180.636 36.3581 180.372 36.9414V42H178.711V34.6035H180.297L180.338 35.4307C180.739 34.7881 181.295 34.4668 182.006 34.4668C182.243 34.4668 182.439 34.4987 182.594 34.5625L182.587 36.1211ZM187.782 39.9902C187.782 39.694 187.659 39.4684 187.413 39.3135C187.172 39.1585 186.768 39.0218 186.203 38.9033C185.638 38.7848 185.166 38.6344 184.788 38.4521C183.959 38.0511 183.544 37.4701 183.544 36.709C183.544 36.071 183.813 35.5378 184.351 35.1094C184.888 34.681 185.572 34.4668 186.401 34.4668C187.285 34.4668 187.999 34.6855 188.541 35.123C189.088 35.5605 189.361 36.1279 189.361 36.8252H187.7C187.7 36.5062 187.582 36.2419 187.345 36.0322C187.108 35.818 186.793 35.7109 186.401 35.7109C186.037 35.7109 185.738 35.7952 185.506 35.9639C185.278 36.1325 185.164 36.3581 185.164 36.6406C185.164 36.8958 185.271 37.0941 185.485 37.2354C185.7 37.3766 186.132 37.5202 186.784 37.666C187.436 37.8073 187.946 37.9782 188.315 38.1787C188.689 38.3747 188.965 38.6117 189.143 38.8896C189.325 39.1676 189.416 39.5049 189.416 39.9014C189.416 40.5667 189.14 41.1068 188.589 41.5215C188.037 41.9316 187.315 42.1367 186.422 42.1367C185.816 42.1367 185.276 42.0273 184.802 41.8086C184.328 41.5898 183.959 41.2891 183.694 40.9062C183.43 40.5234 183.298 40.111 183.298 39.6689H184.911C184.934 40.0609 185.082 40.3639 185.355 40.5781C185.629 40.7878 185.991 40.8926 186.442 40.8926C186.88 40.8926 187.213 40.8105 187.44 40.6465C187.668 40.4779 187.782 40.2591 187.782 39.9902ZM195.288 42C195.215 41.8587 195.151 41.6286 195.097 41.3096C194.568 41.861 193.921 42.1367 193.155 42.1367C192.412 42.1367 191.806 41.9248 191.337 41.501C190.868 41.0771 190.633 40.5531 190.633 39.9287C190.633 39.1403 190.924 38.5365 191.508 38.1172C192.096 37.6934 192.934 37.4814 194.023 37.4814H195.042V36.9961C195.042 36.6133 194.935 36.3079 194.721 36.0801C194.507 35.8477 194.181 35.7314 193.743 35.7314C193.365 35.7314 193.055 35.8271 192.813 36.0186C192.572 36.2054 192.451 36.4447 192.451 36.7363H190.79C190.79 36.3307 190.924 35.9525 191.193 35.6016C191.462 35.2461 191.827 34.9681 192.287 34.7676C192.752 34.5671 193.269 34.4668 193.839 34.4668C194.705 34.4668 195.395 34.6855 195.91 35.123C196.425 35.556 196.689 36.1667 196.703 36.9551V40.291C196.703 40.9564 196.797 41.4873 196.983 41.8838V42H195.288ZM193.463 40.8037C193.791 40.8037 194.099 40.724 194.386 40.5645C194.677 40.4049 194.896 40.1908 195.042 39.9219V38.5273H194.146C193.531 38.5273 193.069 38.6344 192.759 38.8486C192.449 39.0628 192.294 39.3659 192.294 39.7578C192.294 40.0768 192.399 40.332 192.608 40.5234C192.823 40.7103 193.107 40.8037 193.463 40.8037ZM200.21 42H198.549V31.5H200.21V42ZM205.672 42V32.0469H209.083C210.209 32.0469 211.065 32.2725 211.653 32.7236C212.241 33.1748 212.535 33.847 212.535 34.7402C212.535 35.196 212.412 35.6061 212.166 35.9707C211.92 36.3353 211.56 36.6178 211.086 36.8184C211.624 36.9642 212.038 37.2399 212.33 37.6455C212.626 38.0465 212.774 38.5296 212.774 39.0947C212.774 40.029 212.474 40.7467 211.872 41.248C211.275 41.7493 210.418 42 209.302 42H205.672ZM207.401 37.5088V40.6191H209.322C209.865 40.6191 210.288 40.4847 210.594 40.2158C210.899 39.9469 211.052 39.5732 211.052 39.0947C211.052 38.0602 210.523 37.5316 209.466 37.5088H207.401ZM207.401 36.2373H209.097C209.634 36.2373 210.054 36.1165 210.354 35.875C210.66 35.6289 210.812 35.2826 210.812 34.8359C210.812 34.3438 210.671 33.9883 210.389 33.7695C210.111 33.5508 209.675 33.4414 209.083 33.4414H207.401V36.2373ZM218.763 42C218.69 41.8587 218.626 41.6286 218.571 41.3096C218.043 41.861 217.396 42.1367 216.63 42.1367C215.887 42.1367 215.281 41.9248 214.812 41.501C214.342 41.0771 214.107 40.5531 214.107 39.9287C214.107 39.1403 214.399 38.5365 214.982 38.1172C215.57 37.6934 216.409 37.4814 217.498 37.4814H218.517V36.9961C218.517 36.6133 218.41 36.3079 218.195 36.0801C217.981 35.8477 217.655 35.7314 217.218 35.7314C216.84 35.7314 216.53 35.8271 216.288 36.0186C216.047 36.2054 215.926 36.4447 215.926 36.7363H214.265C214.265 36.3307 214.399 35.9525 214.668 35.6016C214.937 35.2461 215.301 34.9681 215.762 34.7676C216.227 34.5671 216.744 34.4668 217.313 34.4668C218.179 34.4668 218.87 34.6855 219.385 35.123C219.9 35.556 220.164 36.1667 220.178 36.9551V40.291C220.178 40.9564 220.271 41.4873 220.458 41.8838V42H218.763ZM216.938 40.8037C217.266 40.8037 217.573 40.724 217.86 40.5645C218.152 40.4049 218.371 40.1908 218.517 39.9219V38.5273H217.621C217.006 38.5273 216.543 38.6344 216.233 38.8486C215.924 39.0628 215.769 39.3659 215.769 39.7578C215.769 40.0768 215.873 40.332 216.083 40.5234C216.297 40.7103 216.582 40.8037 216.938 40.8037ZM223.459 34.6035L223.507 35.458C224.054 34.7972 224.771 34.4668 225.66 34.4668C227.201 34.4668 227.984 35.3486 228.012 37.1123V42H226.351V37.208C226.351 36.7386 226.248 36.3923 226.043 36.1689C225.842 35.9411 225.512 35.8271 225.052 35.8271C224.382 35.8271 223.883 36.1302 223.555 36.7363V42H221.894V34.6035H223.459ZM232.113 38.8281L231.375 39.5869V42H229.714V31.5H231.375V37.5566L231.895 36.9072L233.938 34.6035H235.935L233.187 37.6865L236.229 42H234.308L232.113 38.8281Z" fill="#CCCCCC"/>
<rect x="25" y="82" width="150" height="30" rx="3" fill="#C4C4C4"/>
<defs>
<linearGradient id="paint0_linear" x1="370" y1="178" x2="13.5" y2="7.5" gradientUnits="userSpaceOnUse">
<stop/>
<stop offset="1" stop-opacity="0.75"/>
</linearGradient>
</defs>
</svg>
